<?xml version="1.0" standalone="no"?>
<!DOCTYPE svg PUBLIC "-//W3C//DTD SVG 20010904//EN"
 "http://www.w3.org/TR/2001/REC-SVG-20010904/DTD/svg10.dtd">
<svg version="1.0" xmlns="http://www.w3.org/2000/svg"
 width="571.000000pt" height="571.000000pt" viewBox="0 0 571.000000 571.000000"
 preserveAspectRatio="xMidYMid meet">

<g transform="translate(0.000000,571.000000) scale(0.100000,-0.100000)"
fill="#000000" stroke="none">
<path d="M2632 5630 c-175 -17 -362 -54 -542 -106 -220 -63 -271 -79 -351
-110 -97 -37 -156 -62 -244 -106 -87 -43 -252 -137 -267 -151 -7 -7 -25 -18
-40 -26 -16 -8 -28 -18 -28 -23 0 -4 -5 -8 -10 -8 -30 0 -262 -195 -402 -337
-117 -119 -177 -194 -273 -338 -236 -356 -379 -732 -446 -1175 -37 -242 -30
-610 17 -885 117 -677 476 -1288 1014 -1724 41 -34 80 -61 87 -61 6 0 13 -4
15 -8 4 -11 84 -66 163 -114 90 -54 268 -141 375 -183 52 -20 104 -41 115 -45
105 -44 360 -105 575 -136 177 -27 531 -24 720 5 336 51 598 135 905 288 142
72 345 205 444 292 13 12 27 21 30 21 3 0 29 21 56 46 28 25 70 62 95 82 65
53 89 78 161 162 35 41 67 77 71 78 5 2 8 8 8 12 0 5 13 23 29 41 39 42 121
163 121 177 0 7 4 12 9 12 5 0 27 30 49 68 277 470 406 964 388 1492 -4 107
-10 218 -15 245 -4 28 -5 -47 -3 -166 6 -252 -7 -411 -49 -624 -95 -483 -314
-921 -639 -1279 -49 -53 -163 -164 -249 -242 -30 -27 -62 -57 -73 -66 -10 -10
-22 -18 -28 -18 -5 0 -13 -6 -17 -14 -4 -8 -66 -53 -138 -100 -71 -47 -135
-89 -140 -94 -56 -40 -363 -174 -510 -222 -38 -12 -74 -25 -80 -28 -5 -3 -16
-7 -25 -8 -8 -2 -51 -10 -95 -18 -44 -9 -100 -19 -125 -23 -25 -3 -54 -12 -65
-19 -29 -18 -227 -42 -385 -47 -388 -12 -782 62 -1130 212 -49 21 -90 36 -90
32 0 -3 -4 -1 -8 4 -4 6 -47 30 -97 55 -49 25 -92 48 -95 51 -3 3 -41 27 -85
54 -44 27 -96 61 -116 77 -20 15 -41 28 -47 28 -6 0 -12 4 -14 8 -1 4 -37 35
-78 67 -41 33 -83 70 -93 83 -10 12 -22 22 -26 22 -10 0 -181 170 -181 180 0
4 -17 23 -38 42 -100 95 -278 362 -380 568 -339 687 -373 1452 -97 2167 43
110 65 153 65 126 0 -6 -13 -47 -30 -90 -16 -43 -43 -127 -59 -188 -156 -573
-130 -1176 74 -1721 36 -94 117 -264 127 -264 7 0 -59 147 -72 160 -3 3 -6 10
-7 15 -1 6 -18 57 -38 115 -52 144 -119 412 -140 550 -22 150 -30 461 -16 621
30 342 126 679 283 993 54 108 150 269 200 336 104 140 192 241 283 325 59 55
118 109 129 120 12 12 64 52 116 90 52 38 97 72 98 77 2 4 8 8 13 8 5 0 44 22
87 48 95 59 205 121 212 119 3 -1 17 5 30 14 39 24 294 125 405 158 264 81
531 116 835 108 390 -10 705 -79 1040 -227 94 -41 249 -125 303 -162 16 -11
30 -18 32 -16 9 9 -218 148 -241 148 -8 0 -14 4 -14 8 0 10 -14 17 -145 74
-377 165 -665 228 -1135 249 -25 1 0 5 55 9 108 8 354 -3 475 -20 375 -53 757
-188 1052 -371 44 -27 83 -49 88 -49 5 0 10 -3 12 -7 2 -5 46 -40 98 -80 148
-111 363 -310 460 -424 362 -427 576 -929 636 -1489 l13 -125 -4 120 c-10 288
-117 673 -271 978 -90 177 -220 381 -308 481 -14 16 -26 33 -26 38 0 19 -331
339 -415 401 -49 37 -95 71 -102 77 -27 22 -210 139 -238 151 -16 8 -32 16
-35 19 -3 4 -50 28 -105 54 -55 27 -116 56 -135 66 -123 63 -461 158 -676 190
-159 24 -491 34 -642 20z"/>
<path d="M2554 4061 c-133 -34 -198 -152 -159 -287 25 -86 81 -155 282 -346
106 -101 103 -102 282 80 80 81 155 165 166 187 11 22 24 43 29 47 5 3 11 44
13 90 3 73 1 88 -19 123 -64 109 -212 143 -337 76 -33 -18 -34 -18 -75 5 -46
26 -133 38 -182 25z m122 -75 c8 -34 -1 -45 -46 -52 -50 -8 -100 -50 -104 -87
-4 -39 -28 -61 -56 -52 -20 6 -22 12 -18 56 9 85 92 159 180 159 32 0 39 -4
44 -24z"/>
<path d="M2126 3738 c-17 -143 -16 -177 10 -251 61 -170 109 -233 219 -289 22
-11 42 -24 45 -28 3 -3 25 -17 48 -31 53 -29 72 -62 72 -124 l0 -45 110 0 110
0 0 93 c0 114 -18 158 -95 233 -57 55 -86 67 -188 84 -43 6 -56 15 -110 72
-34 36 -73 73 -87 82 -25 16 -70 22 -70 9 0 -11 76 -123 102 -150 20 -21 20
-22 1 -20 -12 0 -40 29 -71 73 -64 90 -67 97 -46 118 14 15 16 30 11 90 -8 86
-21 126 -41 126 -10 0 -16 -14 -20 -42z"/>
<path d="M3392 3767 c-6 -7 -16 -51 -21 -98 -9 -77 -8 -86 10 -105 10 -11 19
-23 19 -26 0 -3 -20 -32 -45 -63 -24 -32 -47 -65 -50 -74 -4 -13 -55 -46 -55
-36 0 2 27 41 60 87 33 46 60 86 60 91 0 4 -11 7 -24 7 -28 0 -91 -41 -120
-78 -54 -69 -83 -89 -141 -96 -98 -11 -190 -65 -215 -126 -7 -16 -16 -30 -21
-30 -19 0 -36 -96 -31 -172 l5 -78 108 0 109 0 0 51 c0 50 24 109 44 109 11 0
195 113 223 137 23 20 50 72 99 186 29 66 34 90 33 150 -2 143 -18 199 -47
164z"/>
<path d="M5421 3324 c0 -11 3 -14 6 -6 3 7 2 16 -1 19 -3 4 -6 -2 -5 -13z"/>
<path d="M5432 3265 c0 -16 2 -22 5 -12 2 9 2 23 0 30 -3 6 -5 -1 -5 -18z"/>
<path d="M5442 3195 c0 -16 2 -22 5 -12 2 9 2 23 0 30 -3 6 -5 -1 -5 -18z"/>
<path d="M5577 2646 c-4 -54 -6 -101 -3 -103 6 -6 19 160 14 183 -2 10 -7 -25
-11 -80z"/>
<path d="M3033 2562 c-1 -21 -5 -74 -8 -119 -7 -91 -9 -93 -94 -93 l-44 0 6
48 c3 26 9 72 13 102 5 45 3 58 -10 69 -14 12 -16 9 -17 -30 -1 -65 -23 -204
-32 -201 -19 6 -48 1 -42 -8 3 -5 15 -10 27 -10 19 0 20 -4 13 -66 -5 -51 -4
-69 7 -75 10 -7 15 7 23 63 l10 72 64 12 63 11 -7 -72 c-3 -40 -10 -89 -15
-111 -6 -26 -5 -43 3 -53 13 -16 13 -15 37 149 9 62 18 90 32 103 18 15 18 17
3 17 -15 0 -16 11 -9 103 5 81 4 105 -7 114 -11 9 -14 4 -16 -25z"/>
<path d="M3913 2542 c-1 -31 -5 -85 -8 -119 -7 -68 -13 -73 -94 -73 l-44 0 9
63 c12 90 11 160 -2 164 -7 2 -11 -7 -11 -22 0 -14 -6 -67 -13 -119 -13 -88
-14 -93 -37 -90 -14 1 -23 -3 -23 -12 0 -8 10 -14 21 -14 21 0 22 -3 16 -69
-4 -49 -2 -71 6 -74 8 -2 15 20 22 66 l10 70 60 13 c33 6 63 9 66 5 6 -6 -15
-171 -25 -197 -3 -7 1 -20 8 -30 11 -15 14 -10 21 37 5 30 10 61 11 69 2 8 6
40 9 70 4 34 12 60 23 69 13 10 14 15 4 18 -10 4 -11 28 -6 107 5 82 4 104 -8
113 -12 10 -14 3 -15 -45z"/>
<path d="M2025 2576 c-80 -23 -153 -80 -142 -110 7 -17 27 -22 27 -8 0 14 36
52 49 52 15 0 15 -2 -20 -139 -30 -120 -35 -191 -13 -198 7 -2 10 6 9 20 -6
51 64 321 90 346 22 22 146 28 164 8 10 -12 10 -21 0 -38 -17 -32 -56 -69 -64
-61 -4 4 -5 0 -3 -8 2 -8 -3 -15 -9 -16 -7 -1 -17 -2 -22 -3 -6 0 -24 -14 -42
-30 -18 -17 -35 -30 -38 -29 -29 3 -44 -23 -21 -37 11 -7 70 25 70 37 0 4 7 8
16 8 11 0 14 5 10 16 -6 14 -4 15 9 4 13 -11 16 -11 13 1 -2 8 3 13 10 11 19
-4 102 87 102 111 -1 66 -88 94 -195 63z"/>
<path d="M1182 2547 c-12 -13 -22 -29 -22 -35 0 -7 -5 -12 -12 -12 -6 0 -8 -3
-5 -7 4 -3 -2 -13 -13 -20 -11 -8 -18 -19 -14 -24 6 -10 21 4 58 56 33 44 37
13 12 -85 l-24 -95 -37 -3 c-39 -3 -69 13 -49 26 12 8 44 75 39 80 -2 3 -11
-3 -20 -12 -9 -9 -13 -16 -8 -16 4 0 3 -4 -3 -8 -6 -4 -19 -22 -28 -39 -12
-24 -23 -33 -41 -33 -28 0 -33 -15 -10 -27 12 -7 11 -17 -10 -68 -17 -43 -21
-62 -12 -67 8 -5 20 15 35 60 14 37 30 70 36 74 6 4 33 8 60 8 l49 0 -6 -43
c-6 -45 0 -87 13 -87 4 0 10 28 13 63 7 78 13 115 33 197 25 106 25 106 6 124
-17 15 -20 14 -40 -7z"/>
<path d="M5562 2500 c0 -19 2 -27 5 -17 2 9 2 25 0 35 -3 9 -5 1 -5 -18z"/>
<path d="M4457 2493 c-4 -3 -7 -28 -7 -54 0 -45 -1 -47 -32 -52 -18 -2 -35 -3
-37 -1 -2 2 0 20 6 39 9 28 8 35 -3 35 -7 0 -19 -18 -25 -41 -7 -22 -21 -45
-31 -50 -16 -9 -18 -5 -18 51 0 74 -15 79 -24 8 -11 -98 -7 -218 7 -218 10 0
13 17 13 67 -1 48 3 67 13 71 11 4 12 -6 7 -50 -4 -30 -4 -62 0 -71 10 -27 42
-20 59 13 22 43 18 47 -16 14 l-31 -29 7 50 c9 62 21 85 43 85 9 0 27 3 39 6
21 6 22 3 25 -72 3 -82 21 -110 33 -52 10 45 46 108 62 108 15 0 15 1 3 -73
-9 -56 -6 -87 10 -87 13 0 22 150 9 166 -18 22 -45 17 -68 -12 l-21 -27 -1 64
c-1 102 -6 128 -22 112z"/>
<path d="M2350 2479 c0 -8 -3 -71 -7 -141 -5 -115 -4 -128 11 -128 13 0 15 7
11 38 -3 20 -2 79 3 130 6 72 5 96 -5 104 -10 8 -13 7 -13 -3z"/>
<path d="M1755 2458 c-3 -13 -6 -72 -8 -133 -1 -82 1 -110 10 -110 9 0 14 36
16 133 3 120 -4 167 -18 110z"/>
<path d="M5545 2415 c-3 -26 -4 -49 -2 -51 3 -3 8 16 12 41 3 26 4 49 2 51 -3
3 -8 -16 -12 -41z"/>
<path d="M1466 2336 c-36 -39 -46 -44 -46 -22 0 21 -28 46 -50 46 -11 0 -26
-12 -34 -27 -10 -18 -15 -22 -16 -12 0 9 -7 22 -15 29 -14 12 -16 5 -13 -60 4
-88 19 -100 42 -33 33 95 69 110 60 24 -4 -38 -2 -50 10 -54 11 -4 16 -1 16
10 0 14 2 14 20 -2 19 -17 21 -17 40 0 11 10 22 26 25 36 4 11 11 19 17 19 14
0 2 -108 -18 -155 -8 -20 -25 -40 -37 -45 -20 -8 -19 -9 10 -9 29 -1 33 3 52
53 13 36 21 85 23 143 l3 88 -28 3 c-20 3 -35 -5 -61 -32z m43 -18 c-15 -30
-40 -58 -50 -58 -5 0 -6 8 -2 18 7 21 44 62 55 62 5 0 3 -10 -3 -22z"/>
<path d="M1600 2334 c-25 -29 -30 -42 -25 -63 17 -67 69 -80 116 -29 41 46 36
55 -11 18 -44 -35 -85 -38 -85 -6 0 11 8 20 18 22 25 3 67 32 74 50 7 18 -14
44 -37 44 -10 0 -32 -16 -50 -36z m60 7 c0 -12 -42 -42 -49 -36 -5 6 29 45 41
45 4 0 8 -4 8 -9z"/>
<path d="M2290 2360 c0 -6 -10 -8 -24 -4 -19 5 -32 -2 -60 -31 -39 -40 -46
-74 -20 -99 23 -23 49 -20 64 9 17 31 30 32 30 3 0 -23 19 -63 20 -43 0 6 3
45 6 87 3 47 1 79 -6 83 -5 3 -10 1 -10 -5z m-10 -28 c0 -18 -63 -102 -76
-102 -24 0 -15 38 17 75 29 32 59 46 59 27z"/>
<path d="M2540 2350 c-6 -8 -15 -22 -20 -30 -7 -12 -13 -9 -30 13 -27 34 -35
34 -50 -3 -14 -34 -30 -40 -30 -11 0 11 -5 23 -10 26 -7 5 -10 -16 -8 -61 2
-37 8 -69 13 -71 6 -1 21 22 34 52 26 62 42 64 36 6 -3 -25 1 -43 9 -50 10 -9
17 -1 30 34 11 27 24 45 33 45 9 0 13 -3 10 -6 -3 -4 0 -16 8 -28 22 -31 18
-39 -26 -60 -22 -10 -37 -22 -32 -26 10 -11 144 51 140 65 -2 5 -13 15 -26 20
-32 15 -40 55 -13 73 12 8 22 18 22 22 0 14 -79 6 -90 -10z"/>
<path d="M3383 2340 c-21 -36 -25 -37 -38 -8 -15 34 -38 33 -53 -2 -15 -34
-32 -40 -32 -11 0 11 -5 23 -11 27 -7 4 -10 -15 -7 -62 3 -66 21 -97 34 -57
26 83 60 113 50 44 -3 -26 -1 -43 8 -50 11 -9 17 -1 32 40 10 28 27 55 36 60
16 9 18 5 18 -29 0 -31 6 -42 30 -60 43 -32 73 -28 104 13 32 41 26 45 -16 9
-33 -27 -71 -29 -76 -4 -1 9 15 24 42 39 49 25 63 46 45 67 -16 19 -42 17 -71
-5 -24 -20 -25 -20 -41 0 -23 26 -33 24 -54 -11z m147 5 c0 -3 -9 -14 -21 -26
-14 -14 -24 -18 -31 -11 -6 6 -2 15 13 26 23 16 39 20 39 11z"/>
<path d="M4000 2341 c-72 -71 4 -178 77 -109 l23 21 23 -21 c32 -31 54 -27 74
11 l18 32 3 -37 c5 -55 22 -46 24 12 4 112 6 104 -30 107 -30 3 -42 -5 -95
-57 -33 -33 -71 -63 -83 -66 -47 -12 -62 28 -16 44 15 5 38 19 52 31 19 18 22
26 14 39 -18 29 -51 26 -84 -7z m60 -1 c0 -14 -49 -44 -58 -35 -4 3 4 15 17
26 26 21 41 24 41 9z m160 -6 c0 -8 -22 -47 -34 -61 -6 -7 -17 -19 -24 -28
-18 -21 -38 -14 -34 11 7 35 92 108 92 78z"/>
<path d="M3099 2313 c-18 -37 -19 -46 -7 -70 10 -21 20 -28 43 -28 24 0 34 8
58 47 28 46 29 49 13 73 -13 20 -24 24 -52 22 -30 -2 -37 -8 -55 -44z m97 2
c-14 -54 -96 -115 -96 -71 0 53 36 94 84 95 15 1 17 -4 12 -24z"/>
<path d="M5531 2334 c0 -11 3 -14 6 -6 3 7 2 16 -1 19 -3 4 -6 -2 -5 -13z"/>
<path d="M5511 2244 c0 -11 3 -14 6 -6 3 7 2 16 -1 19 -3 4 -6 -2 -5 -13z"/>
<path d="M446 1635 c4 -8 11 -15 16 -15 6 0 5 6 -2 15 -7 8 -14 15 -16 15 -2
0 -1 -7 2 -15z"/>
<path d="M480 1586 c-1 -33 210 -350 270 -406 9 -8 23 -27 32 -41 22 -35 249
-269 257 -265 4 3 -47 59 -112 126 -121 125 -221 247 -310 380 -28 41 -54 77
-59 78 -4 2 -8 9 -8 16 0 14 -69 126 -70 112z"/>
<path d="M1087 833 c62 -61 254 -205 262 -197 2 2 2 6 0 7 -2 2 -39 29 -82 60
-79 59 -103 78 -168 135 -50 44 -59 41 -12 -5z"/>
<path d="M1370 615 c7 -8 16 -12 21 -9 5 3 9 0 9 -7 0 -7 3 -9 7 -5 5 4 -1 14
-11 22 -26 18 -42 18 -26 -1z"/>
<path d="M1420 592 c0 -12 112 -78 233 -136 142 -69 167 -79 167 -66 0 6 -5
10 -12 10 -12 0 -269 120 -278 130 -12 14 -110 69 -110 62z"/>
<path d="M1830 379 c0 -4 17 -13 38 -20 20 -6 58 -20 85 -30 26 -10 47 -15 47
-11 0 10 -170 71 -170 61z"/>
<path d="M2015 313 c18 -19 352 -103 400 -102 11 0 -29 11 -90 25 -99 21 -248
61 -300 80 -13 5 -17 4 -10 -3z"/>
<path d="M2453 203 c9 -2 25 -2 35 0 9 3 1 5 -18 5 -19 0 -27 -2 -17 -5z"/>
<path d="M2528 193 c12 -2 32 -2 45 0 12 2 2 4 -23 4 -25 0 -35 -2 -22 -4z"/>
<path d="M3158 193 c6 -2 18 -2 25 0 6 3 1 5 -13 5 -14 0 -19 -2 -12 -5z"/>
<path d="M2623 183 c15 -2 39 -2 55 0 15 2 2 4 -28 4 -30 0 -43 -2 -27 -4z"/>
<path d="M3038 183 c12 -2 32 -2 45 0 12 2 2 4 -23 4 -25 0 -35 -2 -22 -4z"/>
<path d="M2798 173 c34 -2 88 -2 120 0 31 2 3 3 -63 3 -66 0 -92 -1 -57 -3z"/>
</g>
</svg>
